<svg version="1.1" viewBox="0.0 0.0 960.0 960.0" fill="none" stroke="none" stroke-linecap="square" stroke-miterlimit="10" xmlns:xlink="http://www.w3.org/1999/xlink" xmlns="http://www.w3.org/2000/svg"><clipPath id="p.0"><path d="m0 0l960.0 0l0 960.0l-960.0 0l0 -960.0z" clip-rule="nonzero"/></clipPath><g clip-path="url(#p.0)"><path fill="#000000" fill-opacity="0.0" d="m0 0l960.0 0l0 960.0l-960.0 0z" fill-rule="evenodd"/><path fill="#4a86e8" d="m0 0l960.0 0l0 960.0l-960.0 0z" fill-rule="evenodd"/><path fill="#000000" fill-opacity="0.0" d="m582.1102 462.31235l380.31494 0l0 42.015747l-380.31494 0z" fill-rule="evenodd"/><path fill="#d9d9d9" d="m599.79565 88.45407l265.32208 0c4.6904907 0 9.188843 1.8632736 12.505493 5.1799316c3.3166504 3.3166504 5.1799316 7.8150024 5.1799316 12.505455l0 88.42484c0 0.0013885498 -0.001159668 0.0025024414 -0.0025024414 0.0025024414l-300.69043 -0.0025024414l0 0c-0.0014038086 0 -0.0025024414 -0.0011138916 -0.0025024414 -0.0025024414l0.0025024414 -88.42234l0 0c0 -9.767372 7.91803 -17.685387 17.685425 -17.685387z" fill-rule="evenodd"/><path stroke="#efefef" stroke-width="8.0" stroke-linejoin="round" stroke-linecap="butt" d="m599.79565 88.45407l265.32208 0c4.6904907 0 9.188843 1.8632736 12.505493 5.1799316c3.3166504 3.3166504 5.1799316 7.8150024 5.1799316 12.505455l0 88.42484c0 0.0013885498 -0.001159668 0.0025024414 -0.0025024414 0.0025024414l-300.69043 -0.0025024414l0 0c-0.0014038086 0 -0.0025024414 -0.0011138916 -0.0025024414 -0.0025024414l0.0025024414 -88.42234l0 0c0 -9.767372 7.91803 -17.685387 17.685425 -17.685387z" fill-rule="evenodd"/><path fill="#000000" d="m847.7573 115.07342l6.8031006 6.8031464l-46.04724 46.04725l-6.8031006 -6.8031616z" fill-rule="evenodd"/><path fill="#000000" d="m808.5132 115.083916l-6.8031006 6.8031464l46.04724 46.04725l6.8031006 -6.8031464z" fill-rule="evenodd"/><path fill="#ffffff" d="m113.35433 185.43045l779.9055 0l0 674.8661l-779.9055 0z" fill-rule="evenodd"/></g></svg>