<svg version="1.1" viewBox="0.0 0.0 960.0 960.0" fill="none" stroke="none" stroke-linecap="square" stroke-miterlimit="10" xmlns:xlink="http://www.w3.org/1999/xlink" xmlns="http://www.w3.org/2000/svg"><clipPath id="p.0"><path d="m0 0l960.0 0l0 960.0l-960.0 0l0 -960.0z" clip-rule="nonzero"/></clipPath><g clip-path="url(#p.0)"><path fill="#000000" fill-opacity="0.0" d="m0 0l960.0 0l0 960.0l-960.0 0z" fill-rule="evenodd"/><path fill="#ffffff" d="m0 0l960.0 0l0 960.0l-960.0 0z" fill-rule="evenodd"/><path fill="#000000" fill-opacity="0.0" d="m582.1102 462.31235l380.31494 0l0 42.015747l-380.31494 0z" fill-rule="evenodd"/><path fill="#6fa8dc" d="m157.21255 314.5954l135.00992 0l0 558.5783l-135.00992 0z" fill-rule="evenodd"/><path fill="#6fa8dc" d="m207.8774 303.79755l90.90263 -32.114166l133.76709 323.70663l-90.90265 32.114197z" fill-rule="evenodd"/><path fill="#6fa8dc" d="m152.12903 271.68298l89.573074 35.159943l-135.24118 294.23746l-89.57307 -35.159912z" fill-rule="evenodd"/><path fill="#6fa8dc" d="m154.37877 271.71185l145.81999 -0.026733398l0 35.614166l-145.81999 0.02670288z" fill-rule="evenodd"/><path fill="#6fa8dc" d="m148.90535 279.37244l76.44182 -154.75038l76.4418 154.75038z" fill-rule="evenodd"/><path fill="#ff9900" d="m755.33527 683.2004l-135.00989 0l0 -558.5783l135.00989 0z" fill-rule="evenodd"/><path fill="#ff9900" d="m704.6705 693.9982l-90.90265 32.114136l-133.76709 -323.7066l90.90265 -32.114197z" fill-rule="evenodd"/><path fill="#ff9900" d="m760.4188 726.1128l-89.57306 -35.159973l135.24115 -294.23746l89.57306 35.159943z" fill-rule="evenodd"/><path fill="#ff9900" d="m758.16907 726.0839l-145.82 0.026672363l0 -35.614136l145.82 -0.026672363z" fill-rule="evenodd"/><path fill="#ff9900" d="m763.64246 718.42334l-76.44177 154.75037l-76.44183 -154.75037z" fill-rule="evenodd"/></g></svg>