<svg version="1.1" viewBox="0.0 0.0 960.0 960.0" fill="none" stroke="none" stroke-linecap="square" stroke-miterlimit="10" xmlns:xlink="http://www.w3.org/1999/xlink" xmlns="http://www.w3.org/2000/svg"><clipPath id="p.0"><path d="m0 0l960.0 0l0 960.0l-960.0 0l0 -960.0z" clip-rule="nonzero"/></clipPath><g clip-path="url(#p.0)"><path fill="#000000" fill-opacity="0.0" d="m0 0l960.0 0l0 960.0l-960.0 0z" fill-rule="evenodd"/><path fill="#ffffff" d="m0 0l960.0 0l0 960.0l-960.0 0z" fill-rule="evenodd"/><path fill="#000000" fill-opacity="0.0" d="m582.1102 462.31235l380.31494 0l0 42.015747l-380.31494 0z" fill-rule="evenodd"/><path fill="#3c78d8" d="m232.3622 305.52756l549.95276 0l0 451.05515l-549.95276 0z" fill-rule="evenodd"/><path fill="#3c78d8" d="m588.1315 240.3937l183.32764 0c2.8791504 0 5.640381 1.1437378 7.6762695 3.179596c2.0358276 2.0358734 3.1795654 4.797104 3.1795654 7.6762543l0 54.278c0 9.460449E-4 -7.324219E-4 0.0017089844 -0.0017089844 0.0017089844l-205.03766 -0.0017089844l0 0c-9.1552734E-4 0 -0.0017089844 -7.6293945E-4 -0.0017089844 -0.0017089844l0.0017089844 -54.27629l0 0c0 -5.995529 4.8603516 -10.85585 10.855896 -10.85585z" fill-rule="evenodd"/><path fill="#ffff00" d="m777.48816 756.57745l-80.87836 -397.98428l-558.30273 0l80.87836 397.98428z" fill-rule="evenodd"/><path fill="#666666" d="m252.5433 413.17584l-11.092285 -54.582672l-103.143936 0l11.0923 54.582672z" fill-rule="evenodd"/><path fill="#cccccc" d="m346.59842 413.17584l-11.092285 -54.582672l-103.143936 0l11.0923 54.582672z" fill-rule="evenodd"/><path fill="#666666" d="m444.62204 413.17584l-11.092285 -54.582672l-103.14392 0l11.092285 54.582672z" fill-rule="evenodd"/><path fill="#cccccc" d="m515.01575 413.17584l-11.092285 -54.582672l-103.14392 0l11.092285 54.582672z" fill-rule="evenodd"/><path fill="#666666" d="m608.7087 411.20996l-11.092285 -54.582672l-103.14395 0l11.092285 54.582672z" fill-rule="evenodd"/><path fill="#cccccc" d="m710.0 411.21127l-11.092285 -54.582672l-103.14392 0l11.092285 54.582672z" fill-rule="evenodd"/></g></svg>